# xmcd
#
# Track frame offsets: 
#        150
#        21701
#        39814
#        58501
#        100714
#        123715
#        150740
#        173141
#        194967
#        247793
#
# Disc length: 3744 seconds
#
# Revision: 0
# Processed by: cddbd v1.5.2PL0 Copyright (c) Steve Scherf et al.
# Submitted via: ExactAudioCopy v0.95b3
#
DISCID=840e9e0a
DTITLE=Jimi Hendrix  - Rockin' The USA Vol.1- Disc 3
DYEAR=1900
DGENRE=
TTITLE0=Are You Experienced
TTITLE1=Fire
TTITLE2=Wind Cries Mary,The
TTITLE3=Tax Free
TTITLE4=Foxy Lady
TTITLE5=Hey Joe
TTITLE6=Spanish Castle Magic
TTITLE7=Red House
TTITLE8=Purple Haze
TTITLE9=Wild Thing
EXTD=
EXTT0=
EXTT1=
EXTT2=
EXTT3=
EXTT4=
EXTT5=
EXTT6=
EXTT7=
EXTT8=
EXTT9=
PLAYORDER=
